<svg width="238" height="30" viewBox="0 0 238 30" fill="none" xmlns="http://www.w3.org/2000/svg">
<path d="M48.8887 25.2292C47.4231 25.2292 46.1419 24.8005 45.0452 23.943C43.9484 23.0756 43.091 21.8842 42.4728 20.3687C41.8646 18.8532 41.5605 17.1084 41.5605 15.1343C41.5605 13.7385 41.76 12.3676 42.1588 11.0216C42.5675 9.66561 43.1458 8.44425 43.8936 7.35749C44.6414 6.26076 45.5437 5.38836 46.6005 4.74029C47.6574 4.08225 48.8389 3.75323 50.145 3.75323C51.7402 3.75323 53.1011 4.17199 54.2278 5.00949C55.3644 5.83702 55.9576 6.90883 56.0075 8.2249C56.0075 8.74336 55.848 9.19202 55.5289 9.57089C55.2099 9.93979 54.811 10.2239 54.3325 10.4233C53.8539 10.6228 53.3803 10.7225 52.9117 10.7225C52.483 10.7225 52.0941 10.6327 51.7452 10.4533C51.4062 10.2738 51.1669 9.99463 51.0273 9.61576C51.0074 9.536 50.9825 9.4014 50.9525 9.21196C50.9027 8.91285 50.8279 8.57386 50.7282 8.19499C50.6285 7.80615 50.479 7.46218 50.2796 7.16307C50.0901 6.85399 49.8209 6.69945 49.472 6.69945C49.1529 6.69945 48.8737 6.8839 48.6345 7.2528C48.4051 7.6217 48.2257 8.10526 48.0961 8.70348C47.9764 9.30169 47.9166 9.93979 47.9166 10.6178C47.9266 11.9338 48.0462 12.9807 48.2755 13.7584C48.5048 14.5261 48.799 15.0695 49.1579 15.3885C49.5268 15.7076 49.9256 15.8671 50.3543 15.8671C50.8329 15.8671 51.2517 15.7026 51.6106 15.3736C51.9795 15.0346 52.1639 14.6707 52.1639 14.2818C52.1639 14.1124 51.9944 14.0276 51.6555 14.0276C51.5258 14.0276 51.3264 14.0575 51.0572 14.1173C50.7581 14.1871 50.5139 14.222 50.3244 14.222C50.0153 14.222 49.781 14.0775 49.6215 13.7883C49.472 13.4992 49.3972 13.1801 49.3972 12.8312C49.3972 12.4523 49.477 12.1133 49.6365 11.8142C49.806 11.5051 50.0602 11.3406 50.3992 11.3207C50.5886 11.3207 50.8578 11.3556 51.2068 11.4254C51.7352 11.535 52.2936 11.5899 52.8818 11.5899C53.1111 11.5899 53.3354 11.5749 53.5548 11.545C53.7841 11.5051 53.9885 11.4852 54.168 11.4852C55.504 11.4852 56.496 12.3327 57.1441 14.0276C57.6825 15.4534 57.9517 17.238 57.9517 19.3816C57.9517 21.6648 57.6925 23.4595 57.174 24.7656C57.1042 24.8952 56.8998 25.0049 56.5608 25.0946C56.2318 25.1744 55.8679 25.2143 55.4691 25.2143C55.0105 25.2143 54.5867 25.1495 54.1979 25.0198C53.809 24.8803 53.6146 24.6509 53.6146 24.3319C53.6246 24.0727 53.6346 23.8832 53.6445 23.7636C53.6545 23.6439 53.6595 23.4545 53.6595 23.1953C53.6595 22.8862 53.6346 22.6619 53.5847 22.5223C53.5349 22.3727 53.475 22.2979 53.4052 22.2979C53.2557 22.2979 53.0613 22.5671 52.822 23.1055C52.493 23.8134 51.9745 24.3468 51.2666 24.7058C50.5587 25.0547 49.7661 25.2292 48.8887 25.2292Z" fill="white"/>
<path d="M63.2758 7.76129C62.5181 7.76129 61.8949 7.67654 61.4064 7.50704C60.9278 7.32758 60.5739 7.09826 60.3446 6.8191C60.1152 6.53993 60.0006 6.24082 60.0006 5.92177C60.0006 5.58278 60.1302 5.24878 60.3894 4.91976C60.6486 4.59074 61.0225 4.32154 61.5111 4.11216C61.9996 3.90279 62.5829 3.7981 63.2609 3.7981C63.9687 3.7981 64.567 3.90279 65.0555 4.11216C65.554 4.32154 65.9329 4.59074 66.1921 4.91976C66.4613 5.23881 66.5959 5.56783 66.5959 5.90681C66.5959 6.22586 66.4763 6.52497 66.237 6.80414C66.0077 7.08331 65.6487 7.31262 65.1602 7.49209C64.6716 7.67155 64.0435 7.76129 63.2758 7.76129ZM64.6517 25.2143C63.4652 25.2143 62.4981 25.0348 61.7504 24.6759C61.0126 24.307 60.4692 23.8334 60.1202 23.2551C59.7812 22.6669 59.6117 22.0437 59.6117 21.3857C59.6117 21.0766 59.6466 20.7675 59.7164 20.4584C59.9757 19.4016 60.2648 18.4195 60.5838 17.5122C60.8231 16.8243 61.0275 16.1762 61.197 15.568C61.3665 14.9499 61.4513 14.3716 61.4513 13.8332C61.4513 13.1552 61.2668 12.5221 60.8979 11.9338C60.6387 11.5251 60.5091 11.1562 60.5091 10.8271C60.5091 10.4582 60.6536 10.1492 60.9428 9.89991C61.2319 9.64068 61.6058 9.45125 62.0644 9.3316C62.533 9.20199 63.0216 9.13718 63.5301 9.13718C64.0585 9.13718 64.567 9.20698 65.0555 9.34656C65.554 9.47617 65.9628 9.67558 66.2818 9.94478C66.6009 10.214 66.7604 10.543 66.7604 10.9318C66.7604 11.1811 66.6856 11.4503 66.5361 11.7394C66.2769 12.2778 66.1473 12.9209 66.1473 13.6687C66.1473 14.5461 66.3018 15.4733 66.6109 16.4504C66.9199 17.4175 67.3437 18.265 67.8821 18.9928C68.5501 19.9001 68.8841 20.7825 68.8841 21.6399C68.8841 22.3478 68.6797 22.9709 68.2709 23.5093C67.8621 24.0477 67.3337 24.4665 66.6856 24.7656C66.0376 25.0647 65.3596 25.2143 64.6517 25.2143Z" fill="white"/>
<path d="M76.7207 25.3638C75.5442 25.3638 74.4525 25.1345 73.4455 24.6759C72.4385 24.2073 71.6259 23.5243 71.0078 22.627C70.3996 21.7296 70.0855 20.6229 70.0656 19.3069C70.0656 18.7386 70.1703 18.0805 70.3796 17.3328C70.589 16.575 70.8333 15.7724 71.1124 14.9249C71.3119 14.3167 71.5063 13.6986 71.6957 13.0705C71.925 12.3626 72.0397 11.8441 72.0397 11.5151C72.0397 11.1562 71.8752 10.9767 71.5462 10.9767C71.3368 10.9767 71.0925 11.0266 70.8133 11.1263C70.1553 11.3257 69.5371 11.4254 68.9589 11.4254C68.7196 11.4254 68.5401 11.2908 68.4205 11.0216C68.3008 10.7424 68.241 10.4383 68.241 10.1093C68.241 9.69054 68.3258 9.31665 68.4953 8.98763C68.6647 8.65861 68.914 8.4941 69.243 8.4941C69.4424 8.4941 69.7665 8.55891 70.2151 8.68852C70.8532 8.84805 71.2819 8.92781 71.5013 8.92781C72.1992 8.92781 72.5482 8.68354 72.5482 8.19499C72.5482 7.81612 72.3288 7.27773 71.8901 6.57981C71.6209 6.13115 71.4863 5.7423 71.4863 5.41329C71.4863 5.03442 71.6259 4.72534 71.9051 4.48605C72.1942 4.24676 72.5631 4.07228 73.0118 3.96261C73.4604 3.85294 73.9241 3.7981 74.4026 3.7981C74.8513 3.7981 75.28 3.84795 75.6888 3.94766C76.0976 4.04736 76.4316 4.23679 76.6908 4.51596C76.95 4.78516 77.0797 5.18397 77.0797 5.71239C77.0797 6.17103 76.9451 6.80414 76.6759 7.61173C76.5263 8.05042 76.4515 8.3595 76.4515 8.53897C76.4515 8.75831 76.5811 8.86799 76.8404 8.86799C77.0797 8.86799 77.4187 8.83309 77.8573 8.7633L79.996 8.43428C80.2353 8.3944 80.3998 8.37446 80.4895 8.37446C80.8584 8.37446 81.1276 8.529 81.2971 8.83808C81.4666 9.13718 81.5513 9.47119 81.5513 9.84009C81.5513 10.2389 81.4666 10.5879 81.2971 10.887C81.1376 11.1861 80.9132 11.3356 80.6241 11.3356C80.4546 11.3356 80.1256 11.2559 79.637 11.0963C78.7796 10.8471 78.1913 10.7225 77.8723 10.7225C77.0647 10.7225 76.6609 11.0315 76.6609 11.6497C76.6609 11.9189 76.7457 12.2629 76.9152 12.6816C77.1843 13.3297 77.5333 13.8481 77.962 14.237C78.4007 14.6159 78.8843 14.8053 79.4127 14.8053C79.8614 14.7953 80.2452 14.6906 80.5643 14.4912C80.8933 14.2918 81.1924 14.0675 81.4616 13.8182C81.7009 13.5989 81.9452 13.4094 82.1944 13.2499C82.4536 13.0804 82.7478 12.9957 83.0768 12.9957C83.7548 12.9957 84.2782 13.4045 84.6471 14.222C85.026 15.0396 85.2154 16.1064 85.2154 17.4225C85.2154 18.7784 84.9612 19.9549 84.4527 20.952C83.9442 21.949 83.2762 22.7765 82.4487 23.4346C81.6211 24.0826 80.7039 24.5662 79.6969 24.8852C78.6998 25.2043 77.7078 25.3638 76.7207 25.3638Z" fill="white"/>
<path d="M101.322 25.2591C99.9963 25.2591 98.8547 24.9949 97.8976 24.4665C96.9405 23.9381 96.1478 23.2202 95.5197 22.3129C94.9015 21.4056 94.4429 20.3787 94.1438 19.2321C93.8447 18.0755 93.6951 16.8741 93.6951 15.6278C93.6951 14.1921 93.8796 12.7713 94.2485 11.3655C94.6273 9.95973 95.1707 8.68852 95.8786 7.55191C96.5865 6.40533 97.444 5.48806 98.451 4.80011C99.4679 4.10219 100.619 3.75323 101.906 3.75323C103.371 3.75323 104.657 4.167 105.764 4.99453C106.871 5.8121 107.449 6.86895 107.499 8.16508C107.499 8.70348 107.344 9.16211 107.035 9.54098C106.736 9.91985 106.357 10.214 105.899 10.4233C105.44 10.6228 104.986 10.7225 104.538 10.7225C104.139 10.7225 103.775 10.6327 103.446 10.4533C103.117 10.2738 102.883 9.99463 102.743 9.61576L102.653 9.18205C102.614 8.89291 102.544 8.55891 102.444 8.18004C102.354 7.7912 102.215 7.44722 102.025 7.14811C101.846 6.84901 101.592 6.69945 101.263 6.69945C100.834 6.69945 100.485 7.02847 100.216 7.68651C99.9565 8.34455 99.8268 9.09232 99.8268 9.92982C99.8268 10.5879 99.9166 11.221 100.096 11.8292C100.276 12.4373 100.555 12.9359 100.934 13.3247C101.322 13.7036 101.826 13.903 102.444 13.9229C103.321 13.9229 104.069 13.7086 104.687 13.2798C105.236 12.9109 105.739 12.7265 106.198 12.7265C106.816 12.7265 107.349 12.9857 107.798 13.5042C108.257 14.0226 108.611 14.7006 108.86 15.5381C109.109 16.3656 109.239 17.2679 109.249 18.245C109.249 19.3816 109.019 20.3886 108.561 21.266C108.112 22.1334 107.509 22.8663 106.751 23.4645C105.993 24.0527 105.141 24.5014 104.194 24.8105C103.257 25.1096 102.299 25.2591 101.322 25.2591Z" fill="white"/>
<path d="M125.087 25.2143C124.259 25.2143 123.501 25.0049 122.813 24.5861C122.125 24.1574 121.572 23.5891 121.153 22.8812C120.735 22.1634 120.525 21.3707 120.525 20.5033L120.555 18.8732C120.585 18.255 120.6 17.6019 120.6 16.914C120.6 15.9868 120.56 15.1293 120.48 14.3417C120.361 13.5042 120.136 12.896 119.807 12.5171C119.488 12.1283 119.144 11.9338 118.775 11.9338C118.387 11.9338 118.033 12.1283 117.714 12.5171C117.404 12.9059 117.25 13.4493 117.25 14.1472C117.25 15.2639 117.699 16.5002 118.596 17.8562C119.503 19.2121 119.957 20.4983 119.957 21.7147C119.957 22.7715 119.628 23.619 118.97 24.2571C118.312 24.8952 117.484 25.2143 116.487 25.2143C115.151 25.2143 114.054 24.975 113.197 24.4964C112.34 24.0079 111.706 23.3797 111.298 22.612C110.889 21.8443 110.684 21.0367 110.684 20.1892C110.684 19.2221 110.799 18.2949 111.028 17.4075C111.268 16.5102 111.527 15.6428 111.806 14.8053C112.055 14.0775 112.27 13.3696 112.449 12.6816C112.639 11.9837 112.733 11.3057 112.733 10.6477C112.733 10.0096 112.649 9.38644 112.479 8.77825C112.31 8.17007 112.03 7.58681 111.642 7.02847C111.263 6.46017 111.073 5.96664 111.073 5.54788C111.073 5.1391 111.228 4.8051 111.537 4.54587C111.846 4.28664 112.245 4.09721 112.733 3.97757C113.222 3.85792 113.74 3.7981 114.289 3.7981C114.867 3.7981 115.425 3.87288 115.964 4.02243C116.512 4.16202 116.961 4.37139 117.31 4.65056C117.669 4.92973 117.848 5.28367 117.848 5.71239C117.848 6.02147 117.724 6.3804 117.474 6.78918C116.746 7.86597 116.382 8.58383 116.382 8.94276C116.382 9.09232 116.462 9.17208 116.622 9.18205C116.881 9.18205 117.325 8.9976 117.953 8.6287C118.96 8.0903 120.022 7.82111 121.138 7.82111C122.085 7.82111 122.998 8.01553 123.875 8.40437C124.753 8.78324 125.485 9.35653 126.074 10.1242C126.662 10.892 127.011 11.8541 127.12 13.0106C127.16 13.5989 127.19 14.1871 127.21 14.7754C127.21 15.7624 127.285 16.7196 127.435 17.6468C127.584 18.5641 127.953 19.4165 128.541 20.2042C129.04 20.8722 129.289 21.5003 129.289 22.0886C129.289 22.7067 129.07 23.2551 128.631 23.7337C128.192 24.2023 127.649 24.5662 127.001 24.8254C126.353 25.0846 125.715 25.2143 125.087 25.2143Z" fill="white"/>
<path d="M142.465 25.2143C141.727 25.2143 141.054 25.0298 140.446 24.6609C140.306 24.5811 140.177 24.5163 140.057 24.4665C139.947 24.4067 139.828 24.3768 139.698 24.3768C139.449 24.3768 139.055 24.5163 138.517 24.7955C138.168 24.9849 137.893 25.0797 137.694 25.0797C137.425 25.0797 137.166 25.0996 136.916 25.1395C136.667 25.1694 136.433 25.1843 136.213 25.1843C134.877 25.1843 133.756 24.96 132.848 24.5114C131.941 24.0527 131.253 23.4645 130.785 22.7466C130.326 22.0188 130.097 21.2511 130.097 20.4435C130.097 19.8054 130.256 19.2171 130.575 18.6787C130.894 18.1403 131.318 17.6368 131.846 17.1682C132.375 16.6897 132.958 16.241 133.596 15.8223C134.234 15.4035 134.882 14.9947 135.54 14.5959C136.338 14.1273 137.066 13.6637 137.724 13.2051C138.202 12.8561 138.541 12.552 138.741 12.2928C138.95 12.0236 139.055 11.7992 139.055 11.6198C139.055 11.3207 138.836 11.1661 138.397 11.1562C138.018 11.1562 137.564 11.3207 137.036 11.6497C136.517 11.9687 136.069 12.4822 135.69 13.1901C135.461 13.6388 135.077 13.8631 134.538 13.8631C134.03 13.8631 133.511 13.7086 132.983 13.3995C132.465 13.0804 132.026 12.6716 131.667 12.1731C131.318 11.6746 131.143 11.1512 131.143 10.6028C131.143 10.0644 131.383 9.58086 131.861 9.15214C132.34 8.72342 132.968 8.3595 133.746 8.06039C134.523 7.76129 135.381 7.53695 136.318 7.3874C137.255 7.22788 138.187 7.14811 139.115 7.14811C140.162 7.14811 141.114 7.2528 141.971 7.46218C142.829 7.66158 143.512 7.98063 144.02 8.41932C144.529 8.85802 144.783 9.43131 144.783 10.1392C144.783 10.3585 144.663 10.8271 144.424 11.545C144.135 12.3626 143.99 12.9209 143.99 13.22C143.99 14.3267 144.563 15.8721 145.71 17.8562C146.318 19.0127 146.622 20.0646 146.622 21.0118C146.622 21.8493 146.428 22.5871 146.039 23.2252C145.65 23.8533 145.142 24.3419 144.514 24.6908C143.886 25.0398 143.203 25.2143 142.465 25.2143ZM136.258 18.7984C136.637 18.7984 136.991 18.604 137.32 18.2151C137.649 17.8163 137.908 17.3726 138.098 16.8841C138.297 16.3856 138.397 15.9868 138.397 15.6877C138.397 15.4284 138.317 15.2988 138.158 15.2988C137.878 15.2988 137.529 15.4833 137.111 15.8522C136.702 16.2211 136.338 16.6448 136.019 17.1234C135.7 17.592 135.54 17.9808 135.54 18.2899C135.54 18.4494 135.59 18.5741 135.69 18.6638C135.79 18.7535 135.979 18.7984 136.258 18.7984Z" fill="white"/>
<path d="M153.696 25.2143C152.41 25.2143 151.338 24.98 150.481 24.5114C149.623 24.0328 148.975 23.4246 148.537 22.6868C148.108 21.939 147.894 21.1564 147.894 20.3388C147.894 20.0696 147.918 19.8004 147.968 19.5312C148.198 18.3547 148.502 17.1782 148.881 16.0017C149.16 15.0845 149.404 14.1772 149.613 13.2798C149.833 12.3825 149.942 11.5051 149.942 10.6477C149.942 10.0096 149.858 9.38644 149.688 8.77825C149.529 8.17007 149.254 7.58182 148.866 7.01352C148.477 6.44521 148.282 5.96165 148.282 5.56284C148.282 5.14409 148.437 4.8051 148.746 4.54587C149.055 4.28664 149.454 4.09721 149.942 3.97757C150.431 3.85792 150.949 3.7981 151.498 3.7981C152.076 3.7981 152.634 3.86789 153.173 4.00748C153.721 4.14706 154.17 4.36142 154.519 4.65056C154.878 4.92973 155.057 5.28367 155.057 5.71239C155.057 6.03144 154.928 6.39536 154.668 6.80414C154.409 7.21292 154.22 7.72141 154.1 8.32959C153.98 8.93778 153.921 9.6008 153.921 10.3187C153.921 11.6746 154.1 13.0605 154.459 14.4763C154.818 15.892 155.267 17.0187 155.805 17.8562C156.722 19.2321 157.181 20.5183 157.181 21.7147C157.181 22.7715 156.847 23.619 156.179 24.2571C155.521 24.8952 154.693 25.2143 153.696 25.2143Z" fill="white"/>
<path d="M164.165 25.2143C162.879 25.2143 161.807 24.98 160.95 24.5114C160.092 24.0328 159.444 23.4246 159.005 22.6868C158.577 21.939 158.362 21.1564 158.362 20.3388C158.362 20.0696 158.387 19.8004 158.437 19.5312C158.666 18.3547 158.971 17.1782 159.349 16.0017C159.629 15.0845 159.873 14.1772 160.082 13.2798C160.302 12.3825 160.411 11.5051 160.411 10.6477C160.411 10.0096 160.326 9.38644 160.157 8.77825C159.997 8.17007 159.723 7.58182 159.334 7.01352C158.946 6.44521 158.751 5.96165 158.751 5.56284C158.751 5.14409 158.906 4.8051 159.215 4.54587C159.524 4.28664 159.923 4.09721 160.411 3.97757C160.9 3.85792 161.418 3.7981 161.967 3.7981C162.545 3.7981 163.103 3.86789 163.642 4.00748C164.19 4.14706 164.639 4.36142 164.988 4.65056C165.347 4.92973 165.526 5.28367 165.526 5.71239C165.526 6.03144 165.396 6.39536 165.137 6.80414C164.878 7.21292 164.688 7.72141 164.569 8.32959C164.449 8.93778 164.389 9.6008 164.389 10.3187C164.389 11.6746 164.569 13.0605 164.928 14.4763C165.287 15.892 165.735 17.0187 166.274 17.8562C167.191 19.2321 167.65 20.5183 167.65 21.7147C167.65 22.7715 167.316 23.619 166.648 24.2571C165.99 24.8952 165.162 25.2143 164.165 25.2143Z" fill="white"/>
<path d="M176.309 12.3376C176.887 12.3376 177.351 12.2778 177.7 12.1582C178.059 12.0385 178.313 11.889 178.462 11.7095C178.622 11.5201 178.702 11.3356 178.702 11.1562C178.702 10.8172 178.497 10.5081 178.089 10.2289C177.69 9.93979 177.171 9.79522 176.533 9.79522C175.995 9.79522 175.551 9.95973 175.202 10.2888C174.853 10.6078 174.679 10.9518 174.679 11.3207C174.679 11.5799 174.798 11.8142 175.038 12.0236C175.287 12.233 175.711 12.3376 176.309 12.3376ZM176.354 25.2591C175.008 25.2591 173.841 25.0348 172.854 24.5861C171.877 24.1375 171.074 23.5343 170.446 22.7765C169.818 22.0088 169.35 21.1364 169.041 20.1593C168.741 19.1822 168.592 18.1703 168.592 17.1234C168.592 15.9269 168.781 14.7405 169.16 13.564C169.539 12.3775 170.087 11.3057 170.805 10.3486C171.523 9.38146 172.396 8.60876 173.422 8.03048C174.459 7.45221 175.636 7.16307 176.952 7.16307C177.939 7.16307 178.866 7.40236 179.734 7.88093C180.601 8.34953 181.304 8.97766 181.842 9.76531C182.391 10.543 182.665 11.3905 182.665 12.3077C182.665 12.9757 182.196 13.4244 181.259 13.6537C180.631 13.8132 179.744 13.893 178.597 13.893L177.879 13.878C176.982 13.878 176.319 13.9578 175.89 14.1173C175.461 14.2769 175.247 14.4763 175.247 14.7156C175.247 14.9648 175.461 15.1742 175.89 15.3437C176.329 15.5132 176.952 15.6029 177.76 15.6129C178.537 15.6129 179.215 15.4683 179.793 15.1792C180.342 14.8701 180.855 14.7156 181.334 14.7156C181.972 14.7156 182.52 14.9349 182.979 15.3736C183.448 15.8123 183.807 16.3806 184.056 17.0785C184.305 17.7764 184.435 18.5392 184.445 19.3667C184.445 20.3139 184.21 21.1564 183.742 21.8942C183.283 22.622 182.665 23.2352 181.887 23.7337C181.119 24.2322 180.252 24.6111 179.285 24.8703C178.328 25.1295 177.351 25.2591 176.354 25.2591Z" fill="white"/>
<path d="M199.265 25.2143C198.109 25.2143 197.112 24.7756 196.274 23.8982C195.437 23.0108 195.018 21.939 195.018 20.6828C195.028 20.0546 195.058 19.3866 195.108 18.6787C195.208 17.1034 195.257 15.558 195.257 14.0426C195.257 13.3446 195.178 12.7813 195.018 12.3526C194.859 11.9239 194.654 11.6098 194.405 11.4104C194.166 11.211 193.926 11.1113 193.687 11.1113C193.258 11.1113 192.874 11.3606 192.535 11.8591C192.196 12.3576 192.027 13.0106 192.027 13.8182C192.027 14.9748 192.177 16.0017 192.476 16.899C192.775 17.7864 193.114 18.4843 193.493 18.9928C194.141 19.9499 194.465 20.8323 194.465 21.6399C194.465 22.3478 194.265 22.9709 193.867 23.5093C193.478 24.0477 192.974 24.4665 192.356 24.7656C191.738 25.0647 191.085 25.2143 190.397 25.2143C189.26 25.2143 188.338 25.0348 187.63 24.6759C186.922 24.307 186.399 23.8334 186.06 23.2551C185.731 22.6669 185.566 22.0487 185.566 21.4006C185.566 21.0816 185.601 20.7675 185.671 20.4584C185.86 19.6209 186.085 18.7485 186.344 17.8412C186.623 16.8342 186.872 15.8372 187.092 14.8502C187.321 13.8531 187.436 12.9458 187.436 12.1283C187.436 11.2908 187.271 10.5829 186.942 10.0046C186.693 9.58585 186.568 9.22193 186.568 8.91285C186.568 8.53398 186.708 8.21992 186.987 7.97066C187.266 7.72141 187.625 7.53695 188.064 7.41731C188.503 7.2877 188.966 7.22289 189.455 7.22289C190.143 7.22289 190.781 7.34752 191.369 7.59678C191.967 7.83606 192.346 8.19998 192.506 8.68852C193.084 8.20995 193.712 7.85102 194.39 7.61173C195.068 7.37245 195.751 7.2528 196.439 7.2528C197.366 7.2528 198.229 7.44224 199.026 7.82111C199.834 8.19998 200.482 8.7633 200.97 9.51107C201.469 10.2588 201.718 11.1811 201.718 12.2778C201.718 14.7405 201.773 16.5351 201.883 17.6618C202.002 18.7884 202.276 19.6359 202.705 20.2042C203.144 20.8523 203.363 21.4555 203.363 22.0138C203.363 22.6519 203.144 23.2102 202.705 23.6888C202.276 24.1674 201.748 24.5413 201.12 24.8105C200.492 25.0797 199.874 25.2143 199.265 25.2143Z" fill="white"/>
<path d="M213.294 30C212.197 30 211.12 29.8554 210.063 29.5663C209.016 29.2871 208.064 28.8434 207.207 28.2353C206.359 27.637 205.681 26.8643 205.173 25.9172C204.664 24.97 204.41 23.8284 204.41 22.4924C204.41 21.276 204.649 20.3039 205.128 19.5761C205.607 18.8383 206.245 18.4594 207.042 18.4395C207.531 18.4395 208.189 18.599 209.016 18.918C209.325 19.0377 209.744 19.1424 210.273 19.2321C210.801 19.3218 211.349 19.3667 211.918 19.3667C212.406 19.3667 212.865 19.3218 213.294 19.2321C213.732 19.1324 214.086 18.9629 214.355 18.7236C214.635 18.4843 214.774 18.1603 214.774 17.7515C214.774 17.5122 214.659 17.3128 214.43 17.1533C214.211 16.9838 213.872 16.899 213.413 16.899C212.955 16.909 212.546 16.929 212.187 16.9589C211.828 16.9888 211.449 17.0037 211.05 17.0037C206.773 17.0037 204.634 15.6378 204.634 12.9059C204.634 11.8591 204.933 10.9717 205.532 10.2439C206.14 9.50608 206.933 8.91285 207.91 8.46419C208.897 8.01553 209.978 7.68651 211.155 7.47713C212.341 7.26776 213.513 7.16307 214.669 7.16307C215.218 7.16307 215.806 7.17803 216.434 7.20794C218.897 7.33755 220.128 8.01553 220.128 9.24187C220.128 9.58086 220.048 10.189 219.889 11.0664C219.779 11.7344 219.67 12.4623 219.56 13.2499C219.46 14.0376 219.41 14.7804 219.41 15.4783C219.41 16.6448 219.485 17.8163 219.635 18.9928C219.764 19.7007 219.999 20.4933 220.338 21.3707C220.537 21.9291 220.716 22.4824 220.876 23.0308C221.045 23.5791 221.13 24.0776 221.13 24.5263C221.13 25.4137 220.911 26.1963 220.472 26.8743C220.043 27.5623 219.455 28.1355 218.707 28.5942C217.97 29.0628 217.132 29.4117 216.195 29.6411C215.268 29.8803 214.301 30 213.294 30ZM212.606 15.2839C213.393 15.2839 214.031 15.2141 214.52 15.0745C215.008 14.9249 215.367 14.7455 215.597 14.5361C215.836 14.3167 215.956 14.1024 215.956 13.893C215.956 13.7036 215.856 13.5241 215.657 13.3546C215.467 13.1851 215.133 13.0505 214.655 12.9508C214.176 12.8411 213.508 12.7863 212.65 12.7863C211.364 12.7863 210.437 12.9059 209.869 13.1452C209.31 13.3746 209.031 13.6238 209.031 13.893C209.031 14.222 209.36 14.5361 210.018 14.8352C210.686 15.1343 211.549 15.2839 212.606 15.2839Z" fill="white"/>
<path d="M229.52 12.3376C230.098 12.3376 230.562 12.2778 230.911 12.1582C231.27 12.0385 231.524 11.889 231.674 11.7095C231.833 11.5201 231.913 11.3356 231.913 11.1562C231.913 10.8172 231.709 10.5081 231.3 10.2289C230.901 9.93979 230.383 9.79522 229.745 9.79522C229.206 9.79522 228.762 9.95973 228.414 10.2888C228.065 10.6078 227.89 10.9518 227.89 11.3207C227.89 11.5799 228.01 11.8142 228.249 12.0236C228.498 12.233 228.922 12.3376 229.52 12.3376ZM229.565 25.2591C228.219 25.2591 227.053 25.0348 226.065 24.5861C225.088 24.1375 224.286 23.5343 223.658 22.7765C223.03 22.0088 222.561 21.1364 222.252 20.1593C221.953 19.1822 221.803 18.1703 221.803 17.1234C221.803 15.9269 221.993 14.7405 222.372 13.564C222.75 12.3775 223.299 11.3057 224.017 10.3486C224.734 9.38146 225.607 8.60876 226.634 8.03048C227.671 7.45221 228.847 7.16307 230.163 7.16307C231.15 7.16307 232.078 7.40236 232.945 7.88093C233.812 8.34953 234.515 8.97766 235.054 9.76531C235.602 10.543 235.876 11.3905 235.876 12.3077C235.876 12.9757 235.408 13.4244 234.47 13.6537C233.842 13.8132 232.955 13.893 231.808 13.893L231.091 13.878C230.193 13.878 229.53 13.9578 229.101 14.1173C228.673 14.2769 228.458 14.4763 228.458 14.7156C228.458 14.9648 228.673 15.1742 229.101 15.3437C229.54 15.5132 230.163 15.6029 230.971 15.6129C231.749 15.6129 232.427 15.4683 233.005 15.1792C233.553 14.8701 234.067 14.7156 234.545 14.7156C235.183 14.7156 235.732 14.9349 236.19 15.3736C236.659 15.8123 237.018 16.3806 237.267 17.0785C237.516 17.7764 237.646 18.5392 237.656 19.3667C237.656 20.3139 237.422 21.1564 236.953 21.8942C236.494 22.622 235.876 23.2352 235.099 23.7337C234.331 24.2322 233.463 24.6111 232.496 24.8703C231.539 25.1295 230.562 25.2591 229.565 25.2591Z" fill="white"/>
<path d="M0.756397 16.8261C-0.252132 15.8176 -0.252132 14.1824 0.756396 13.1739L13.1739 0.756397C14.1824 -0.252132 15.8176 -0.252132 16.8261 0.756396L29.2436 13.1739C30.2521 14.1824 30.2521 15.8176 29.2436 16.8261L16.8261 29.2436C15.8176 30.2521 14.1824 30.2521 13.1739 29.2436L0.756397 16.8261Z" fill="#F54D27"/>
<path d="M9.26029 4.56692L10.7663 3.06231L14.3563 6.65574C14.5419 6.60101 14.7385 6.57163 14.9418 6.57163C16.0828 6.57163 17.0078 7.49663 17.0078 8.63763C17.0078 8.84166 16.9782 9.03875 16.9231 9.22494L20.5498 12.8551C20.7368 12.7995 20.9348 12.7696 21.1398 12.7696C22.2808 12.7696 23.2058 13.6946 23.2058 14.8356C23.2058 15.9766 22.2808 16.9016 21.1398 16.9016C19.9988 16.9016 19.0738 15.9766 19.0738 14.8356C19.0738 14.6967 19.0875 14.5609 19.1137 14.4296L15.9748 11.2877V19.244C16.5923 19.6013 17.0078 20.2689 17.0078 21.0336C17.0078 22.1746 16.0828 23.0996 14.9418 23.0996C13.8008 23.0996 12.8758 22.1746 12.8758 21.0336C12.8758 20.2689 13.2913 19.6013 13.9088 19.244V10.4272C13.2913 10.07 12.8758 9.40236 12.8758 8.63763C12.8758 8.49691 12.8899 8.35946 12.9166 8.22668L9.26029 4.56692Z" fill="white"/>
</svg>
