<svg width="238" height="30" viewBox="0 0 238 30" fill="none" xmlns="http://www.w3.org/2000/svg">
<path d="M48.8887 25.2294C47.4231 25.2294 46.1419 24.8007 45.0452 23.9432C43.9484 23.0758 43.091 21.8844 42.4728 20.3689C41.8646 18.8534 41.5605 17.1086 41.5605 15.1345C41.5605 13.7387 41.76 12.3677 42.1588 11.0217C42.5675 9.66579 43.1458 8.44443 43.8936 7.35767C44.6414 6.26094 45.5437 5.38854 46.6005 4.74048C47.6574 4.08244 48.8389 3.75342 50.145 3.75342C51.7402 3.75342 53.1011 4.17217 54.2278 5.00967C55.3644 5.83721 55.9576 6.90901 56.0075 8.22509C56.0075 8.74354 55.848 9.1922 55.5289 9.57107C55.2099 9.93997 54.811 10.2241 54.3325 10.4235C53.8539 10.6229 53.3803 10.7226 52.9117 10.7226C52.483 10.7226 52.0941 10.6329 51.7452 10.4534C51.4062 10.274 51.1669 9.99481 51.0273 9.61594C51.0074 9.53618 50.9825 9.40158 50.9525 9.21214C50.9027 8.91304 50.8279 8.57405 50.7282 8.19518C50.6285 7.80634 50.479 7.46236 50.2796 7.16325C50.0901 6.85417 49.8209 6.69963 49.472 6.69963C49.1529 6.69963 48.8737 6.88408 48.6345 7.25299C48.4051 7.62189 48.2257 8.10544 48.0961 8.70366C47.9764 9.30188 47.9166 9.93997 47.9166 10.618C47.9266 11.934 48.0462 12.9809 48.2755 13.7586C48.5048 14.5263 48.799 15.0697 49.1579 15.3887C49.5268 15.7078 49.9256 15.8673 50.3543 15.8673C50.8329 15.8673 51.2517 15.7028 51.6106 15.3738C51.9795 15.0348 52.1639 14.6709 52.1639 14.282C52.1639 14.1125 51.9944 14.0278 51.6555 14.0278C51.5258 14.0278 51.3264 14.0577 51.0572 14.1175C50.7581 14.1873 50.5139 14.2222 50.3244 14.2222C50.0153 14.2222 49.781 14.0776 49.6215 13.7885C49.472 13.4994 49.3972 13.1803 49.3972 12.8314C49.3972 12.4525 49.477 12.1135 49.6365 11.8144C49.806 11.5053 50.0602 11.3408 50.3992 11.3209C50.5886 11.3209 50.8578 11.3558 51.2068 11.4255C51.7352 11.5352 52.2936 11.5901 52.8818 11.5901C53.1111 11.5901 53.3354 11.5751 53.5548 11.5452C53.7841 11.5053 53.9885 11.4854 54.168 11.4854C55.504 11.4854 56.496 12.3328 57.1441 14.0278C57.6825 15.4535 57.9517 17.2382 57.9517 19.3818C57.9517 21.665 57.6925 23.4597 57.174 24.7658C57.1042 24.8954 56.8998 25.0051 56.5608 25.0948C56.2318 25.1746 55.8679 25.2144 55.4691 25.2144C55.0105 25.2144 54.5867 25.1496 54.1979 25.02C53.809 24.8804 53.6146 24.6511 53.6146 24.3321C53.6246 24.0728 53.6346 23.8834 53.6445 23.7638C53.6545 23.6441 53.6595 23.4547 53.6595 23.1955C53.6595 22.8864 53.6346 22.662 53.5847 22.5225C53.5349 22.3729 53.475 22.2981 53.4052 22.2981C53.2557 22.2981 53.0613 22.5673 52.822 23.1057C52.493 23.8136 51.9745 24.347 51.2666 24.706C50.5587 25.0549 49.7661 25.2294 48.8887 25.2294Z" fill="#4A3C39"/>
<path d="M63.2758 7.76147C62.5181 7.76147 61.8949 7.67672 61.4064 7.50723C60.9278 7.32776 60.5739 7.09845 60.3446 6.81928C60.1152 6.54011 60.0006 6.241 60.0006 5.92195C60.0006 5.58296 60.1302 5.24896 60.3894 4.91994C60.6486 4.59092 61.0225 4.32172 61.5111 4.11235C61.9996 3.90297 62.5829 3.79828 63.2609 3.79828C63.9687 3.79828 64.567 3.90297 65.0555 4.11235C65.554 4.32172 65.9329 4.59092 66.1921 4.91994C66.4613 5.23899 66.5959 5.56801 66.5959 5.907C66.5959 6.22605 66.4763 6.52516 66.237 6.80432C66.0077 7.08349 65.6487 7.31281 65.1602 7.49227C64.6716 7.67174 64.0435 7.76147 63.2758 7.76147ZM64.6517 25.2144C63.4652 25.2144 62.4981 25.035 61.7504 24.676C61.0126 24.3071 60.4692 23.8336 60.1202 23.2553C59.7812 22.667 59.6117 22.0439 59.6117 21.3859C59.6117 21.0768 59.6466 20.7677 59.7164 20.4586C59.9757 19.4018 60.2648 18.4197 60.5838 17.5124C60.8231 16.8245 61.0275 16.1764 61.197 15.5682C61.3665 14.95 61.4513 14.3718 61.4513 13.8334C61.4513 13.1554 61.2668 12.5223 60.8979 11.934C60.6387 11.5252 60.5091 11.1563 60.5091 10.8273C60.5091 10.4584 60.6536 10.1494 60.9428 9.90009C61.2319 9.64087 61.6058 9.45143 62.0644 9.33179C62.533 9.20217 63.0216 9.13737 63.5301 9.13737C64.0585 9.13737 64.567 9.20716 65.0555 9.34674C65.554 9.47636 65.9628 9.67576 66.2818 9.94496C66.6009 10.2142 66.7604 10.5432 66.7604 10.932C66.7604 11.1813 66.6856 11.4505 66.5361 11.7396C66.2769 12.278 66.1473 12.9211 66.1473 13.6689C66.1473 14.5462 66.3018 15.4735 66.6109 16.4506C66.9199 17.4177 67.3437 18.2652 67.8821 18.993C68.5501 19.9003 68.8841 20.7826 68.8841 21.6401C68.8841 22.348 68.6797 22.9711 68.2709 23.5095C67.8621 24.0479 67.3337 24.4667 66.6856 24.7658C66.0376 25.0649 65.3596 25.2144 64.6517 25.2144Z" fill="#4A3C39"/>
<path d="M76.7207 25.364C75.5442 25.364 74.4525 25.1347 73.4455 24.676C72.4385 24.2074 71.6259 23.5245 71.0078 22.6272C70.3996 21.7298 70.0855 20.6231 70.0656 19.307C70.0656 18.7387 70.1703 18.0807 70.3796 17.3329C70.589 16.5752 70.8333 15.7726 71.1124 14.9251C71.3119 14.3169 71.5063 13.6988 71.6957 13.0706C71.925 12.3628 72.0397 11.8443 72.0397 11.5153C72.0397 11.1563 71.8752 10.9769 71.5462 10.9769C71.3368 10.9769 71.0925 11.0267 70.8133 11.1264C70.1553 11.3258 69.5371 11.4255 68.9589 11.4255C68.7196 11.4255 68.5401 11.2909 68.4205 11.0217C68.3008 10.7426 68.241 10.4385 68.241 10.1095C68.241 9.69072 68.3258 9.31683 68.4953 8.98781C68.6647 8.65879 68.914 8.49428 69.243 8.49428C69.4424 8.49428 69.7665 8.55909 70.2151 8.6887C70.8532 8.84823 71.2819 8.92799 71.5013 8.92799C72.1992 8.92799 72.5482 8.68372 72.5482 8.19518C72.5482 7.81631 72.3288 7.27791 71.8901 6.57999C71.6209 6.13133 71.4863 5.74249 71.4863 5.41347C71.4863 5.0346 71.6259 4.72552 71.9051 4.48623C72.1942 4.24695 72.5631 4.07247 73.0118 3.96279C73.4604 3.85312 73.9241 3.79828 74.4026 3.79828C74.8513 3.79828 75.28 3.84814 75.6888 3.94784C76.0976 4.04754 76.4316 4.23698 76.6908 4.51614C76.95 4.78534 77.0797 5.18415 77.0797 5.71258C77.0797 6.17121 76.9451 6.80432 76.6759 7.61192C76.5263 8.05061 76.4515 8.35969 76.4515 8.53915C76.4515 8.7585 76.5811 8.86817 76.8404 8.86817C77.0797 8.86817 77.4187 8.83327 77.8573 8.76348L79.996 8.43446C80.2353 8.39458 80.3998 8.37464 80.4895 8.37464C80.8584 8.37464 81.1276 8.52918 81.2971 8.83826C81.4666 9.13737 81.5513 9.47137 81.5513 9.84027C81.5513 10.2391 81.4666 10.588 81.2971 10.8872C81.1376 11.1863 80.9132 11.3358 80.6241 11.3358C80.4546 11.3358 80.1256 11.2561 79.637 11.0965C78.7796 10.8473 78.1913 10.7226 77.8723 10.7226C77.0647 10.7226 76.6609 11.0317 76.6609 11.6499C76.6609 11.9191 76.7457 12.263 76.9152 12.6818C77.1843 13.3299 77.5333 13.8483 77.962 14.2372C78.4007 14.616 78.8843 14.8055 79.4127 14.8055C79.8614 14.7955 80.2452 14.6908 80.5643 14.4914C80.8933 14.292 81.1924 14.0677 81.4616 13.8184C81.7009 13.5991 81.9452 13.4096 82.1944 13.2501C82.4536 13.0806 82.7478 12.9959 83.0768 12.9959C83.7548 12.9959 84.2782 13.4046 84.6471 14.2222C85.026 15.0398 85.2154 16.1066 85.2154 17.4227C85.2154 18.7786 84.9612 19.9551 84.4527 20.9521C83.9442 21.9492 83.2762 22.7767 82.4487 23.4347C81.6211 24.0828 80.7039 24.5664 79.6969 24.8854C78.6998 25.2045 77.7078 25.364 76.7207 25.364Z" fill="#4A3C39"/>
<path d="M101.322 25.2593C99.9963 25.2593 98.8547 24.9951 97.8976 24.4667C96.9405 23.9382 96.1478 23.2204 95.5197 22.3131C94.9015 21.4058 94.4429 20.3789 94.1438 19.2323C93.8447 18.0757 93.6951 16.8743 93.6951 15.628C93.6951 14.1923 93.8796 12.7715 94.2485 11.3657C94.6273 9.95992 95.1707 8.6887 95.8786 7.55209C96.5865 6.40551 97.444 5.48825 98.451 4.8003C99.4679 4.10238 100.619 3.75342 101.906 3.75342C103.371 3.75342 104.657 4.16718 105.764 4.99472C106.871 5.81228 107.449 6.86913 107.499 8.16527C107.499 8.70366 107.344 9.16229 107.035 9.54116C106.736 9.92003 106.357 10.2142 105.899 10.4235C105.44 10.6229 104.986 10.7226 104.538 10.7226C104.139 10.7226 103.775 10.6329 103.446 10.4534C103.117 10.274 102.883 9.99481 102.743 9.61594L102.653 9.18223C102.614 8.8931 102.544 8.55909 102.444 8.18022C102.354 7.79138 102.215 7.44741 102.025 7.1483C101.846 6.84919 101.592 6.69963 101.263 6.69963C100.834 6.69963 100.485 7.02865 100.216 7.68669C99.9565 8.34473 99.8268 9.0925 99.8268 9.93C99.8268 10.588 99.9166 11.2212 100.096 11.8293C100.276 12.4375 100.555 12.936 100.934 13.3249C101.322 13.7038 101.826 13.9032 102.444 13.9231C103.321 13.9231 104.069 13.7087 104.687 13.28C105.236 12.9111 105.739 12.7267 106.198 12.7267C106.816 12.7267 107.349 12.9859 107.798 13.5043C108.257 14.0228 108.611 14.7008 108.86 15.5383C109.109 16.3658 109.239 17.2681 109.249 18.2452C109.249 19.3818 109.019 20.3888 108.561 21.2662C108.112 22.1336 107.509 22.8664 106.751 23.4647C105.993 24.0529 105.141 24.5016 104.194 24.8106C103.257 25.1098 102.299 25.2593 101.322 25.2593Z" fill="#4A3C39"/>
<path d="M125.087 25.2144C124.259 25.2144 123.501 25.0051 122.813 24.5863C122.125 24.1576 121.572 23.5893 121.153 22.8814C120.735 22.1635 120.525 21.3709 120.525 20.5035L120.555 18.8733C120.585 18.2552 120.6 17.6021 120.6 16.9142C120.6 15.9869 120.56 15.1295 120.48 14.3419C120.361 13.5043 120.136 12.8962 119.807 12.5173C119.488 12.1284 119.144 11.934 118.775 11.934C118.387 11.934 118.033 12.1284 117.714 12.5173C117.404 12.9061 117.25 13.4495 117.25 14.1474C117.25 15.2641 117.699 16.5004 118.596 17.8564C119.503 19.2123 119.957 20.4985 119.957 21.7149C119.957 22.7717 119.628 23.6192 118.97 24.2573C118.312 24.8954 117.484 25.2144 116.487 25.2144C115.151 25.2144 114.054 24.9752 113.197 24.4966C112.34 24.008 111.706 23.3799 111.298 22.6122C110.889 21.8445 110.684 21.0369 110.684 20.1894C110.684 19.2223 110.799 18.2951 111.028 17.4077C111.268 16.5104 111.527 15.643 111.806 14.8055C112.055 14.0776 112.27 13.3698 112.449 12.6818C112.639 11.9839 112.733 11.3059 112.733 10.6479C112.733 10.0098 112.649 9.38662 112.479 8.77844C112.31 8.17025 112.03 7.58699 111.642 7.02865C111.263 6.46035 111.073 5.96682 111.073 5.54807C111.073 5.13929 111.228 4.80528 111.537 4.54605C111.846 4.28683 112.245 4.09739 112.733 3.97775C113.222 3.85811 113.74 3.79828 114.289 3.79828C114.867 3.79828 115.425 3.87306 115.964 4.02262C116.512 4.1622 116.961 4.37158 117.31 4.65074C117.669 4.92991 117.848 5.28386 117.848 5.71258C117.848 6.02166 117.724 6.38059 117.474 6.78937C116.746 7.86616 116.382 8.58402 116.382 8.94295C116.382 9.0925 116.462 9.17226 116.622 9.18223C116.881 9.18223 117.325 8.99778 117.953 8.62888C118.96 8.09049 120.022 7.82129 121.138 7.82129C122.085 7.82129 122.998 8.01571 123.875 8.40455C124.753 8.78342 125.485 9.35671 126.074 10.1244C126.662 10.8921 127.011 11.8543 127.12 13.0108C127.16 13.5991 127.19 14.1873 127.21 14.7756C127.21 15.7626 127.285 16.7198 127.435 17.647C127.584 18.5643 127.953 19.4167 128.541 20.2044C129.04 20.8724 129.289 21.5005 129.289 22.0888C129.289 22.7069 129.07 23.2553 128.631 23.7339C128.192 24.2025 127.649 24.5664 127.001 24.8256C126.353 25.0848 125.715 25.2144 125.087 25.2144Z" fill="#4A3C39"/>
<path d="M142.465 25.2144C141.727 25.2144 141.054 25.03 140.446 24.6611C140.306 24.5813 140.177 24.5165 140.057 24.4667C139.947 24.4068 139.828 24.3769 139.698 24.3769C139.449 24.3769 139.055 24.5165 138.517 24.7957C138.168 24.9851 137.893 25.0798 137.694 25.0798C137.425 25.0798 137.166 25.0998 136.916 25.1397C136.667 25.1696 136.433 25.1845 136.213 25.1845C134.877 25.1845 133.756 24.9602 132.848 24.5115C131.941 24.0529 131.253 23.4647 130.785 22.7468C130.326 22.019 130.097 21.2513 130.097 20.4437C130.097 19.8056 130.256 19.2173 130.575 18.6789C130.894 18.1405 131.318 17.637 131.846 17.1684C132.375 16.6899 132.958 16.2412 133.596 15.8224C134.234 15.4037 134.882 14.9949 135.54 14.5961C136.338 14.1275 137.066 13.6639 137.724 13.2052C138.202 12.8563 138.541 12.5522 138.741 12.293C138.95 12.0238 139.055 11.7994 139.055 11.62C139.055 11.3209 138.836 11.1663 138.397 11.1563C138.018 11.1563 137.564 11.3209 137.036 11.6499C136.517 11.9689 136.069 12.4824 135.69 13.1903C135.461 13.6389 135.077 13.8633 134.538 13.8633C134.03 13.8633 133.511 13.7087 132.983 13.3997C132.465 13.0806 132.026 12.6718 131.667 12.1733C131.318 11.6748 131.143 11.1514 131.143 10.603C131.143 10.0646 131.383 9.58105 131.861 9.15232C132.34 8.7236 132.968 8.35969 133.746 8.06058C134.523 7.76147 135.381 7.53714 136.318 7.38758C137.255 7.22806 138.187 7.1483 139.115 7.1483C140.162 7.1483 141.114 7.25299 141.971 7.46236C142.829 7.66177 143.512 7.98082 144.02 8.41951C144.529 8.8582 144.783 9.43149 144.783 10.1394C144.783 10.3587 144.663 10.8273 144.424 11.5452C144.135 12.3628 143.99 12.9211 143.99 13.2202C143.99 14.3269 144.563 15.8723 145.71 17.8564C146.318 19.0129 146.622 20.0648 146.622 21.012C146.622 21.8495 146.428 22.5873 146.039 23.2254C145.65 23.8535 145.142 24.342 144.514 24.691C143.886 25.04 143.203 25.2144 142.465 25.2144ZM136.258 18.7986C136.637 18.7986 136.991 18.6041 137.32 18.2153C137.649 17.8165 137.908 17.3728 138.098 16.8843C138.297 16.3858 138.397 15.9869 138.397 15.6878C138.397 15.4286 138.317 15.299 138.158 15.299C137.878 15.299 137.529 15.4834 137.111 15.8523C136.702 16.2212 136.338 16.645 136.019 17.1236C135.7 17.5922 135.54 17.981 135.54 18.2901C135.54 18.4496 135.59 18.5742 135.69 18.664C135.79 18.7537 135.979 18.7986 136.258 18.7986Z" fill="#4A3C39"/>
<path d="M153.696 25.2144C152.41 25.2144 151.338 24.9801 150.481 24.5115C149.623 24.033 148.975 23.4248 148.537 22.687C148.108 21.9392 147.894 21.1565 147.894 20.339C147.894 20.0698 147.918 19.8006 147.968 19.5314C148.198 18.3549 148.502 17.1784 148.881 16.0019C149.16 15.0846 149.404 14.1773 149.613 13.28C149.833 12.3827 149.942 11.5053 149.942 10.6479C149.942 10.0098 149.858 9.38662 149.688 8.77844C149.529 8.17025 149.254 7.582 148.866 7.0137C148.477 6.44539 148.282 5.96183 148.282 5.56302C148.282 5.14427 148.437 4.80528 148.746 4.54605C149.055 4.28683 149.454 4.09739 149.942 3.97775C150.431 3.85811 150.949 3.79828 151.498 3.79828C152.076 3.79828 152.634 3.86808 153.173 4.00766C153.721 4.14724 154.17 4.3616 154.519 4.65074C154.878 4.92991 155.057 5.28386 155.057 5.71258C155.057 6.03163 154.928 6.39554 154.668 6.80432C154.409 7.2131 154.22 7.72159 154.1 8.32978C153.98 8.93796 153.921 9.60099 153.921 10.3188C153.921 11.6748 154.1 13.0607 154.459 14.4764C154.818 15.8922 155.267 17.0189 155.805 17.8564C156.722 19.2323 157.181 20.5184 157.181 21.7149C157.181 22.7717 156.847 23.6192 156.179 24.2573C155.521 24.8954 154.693 25.2144 153.696 25.2144Z" fill="#4A3C39"/>
<path d="M164.165 25.2144C162.879 25.2144 161.807 24.9801 160.95 24.5115C160.092 24.033 159.444 23.4248 159.005 22.687C158.577 21.9392 158.362 21.1565 158.362 20.339C158.362 20.0698 158.387 19.8006 158.437 19.5314C158.666 18.3549 158.971 17.1784 159.349 16.0019C159.629 15.0846 159.873 14.1773 160.082 13.28C160.302 12.3827 160.411 11.5053 160.411 10.6479C160.411 10.0098 160.326 9.38662 160.157 8.77844C159.997 8.17025 159.723 7.582 159.334 7.0137C158.946 6.44539 158.751 5.96183 158.751 5.56302C158.751 5.14427 158.906 4.80528 159.215 4.54605C159.524 4.28683 159.923 4.09739 160.411 3.97775C160.9 3.85811 161.418 3.79828 161.967 3.79828C162.545 3.79828 163.103 3.86808 163.642 4.00766C164.19 4.14724 164.639 4.3616 164.988 4.65074C165.347 4.92991 165.526 5.28386 165.526 5.71258C165.526 6.03163 165.396 6.39554 165.137 6.80432C164.878 7.2131 164.688 7.72159 164.569 8.32978C164.449 8.93796 164.389 9.60099 164.389 10.3188C164.389 11.6748 164.569 13.0607 164.928 14.4764C165.287 15.8922 165.735 17.0189 166.274 17.8564C167.191 19.2323 167.65 20.5184 167.65 21.7149C167.65 22.7717 167.316 23.6192 166.648 24.2573C165.99 24.8954 165.162 25.2144 164.165 25.2144Z" fill="#4A3C39"/>
<path d="M176.309 12.3378C176.887 12.3378 177.351 12.278 177.7 12.1584C178.059 12.0387 178.313 11.8892 178.462 11.7097C178.622 11.5203 178.702 11.3358 178.702 11.1563C178.702 10.8174 178.497 10.5083 178.089 10.2291C177.69 9.93998 177.171 9.79541 176.533 9.79541C175.995 9.79541 175.551 9.95992 175.202 10.2889C174.853 10.608 174.679 10.952 174.679 11.3209C174.679 11.5801 174.798 11.8144 175.038 12.0238C175.287 12.2331 175.711 12.3378 176.309 12.3378ZM176.354 25.2593C175.008 25.2593 173.841 25.035 172.854 24.5863C171.877 24.1377 171.074 23.5344 170.446 22.7767C169.818 22.009 169.35 21.1366 169.041 20.1595C168.741 19.1824 168.592 18.1704 168.592 17.1236C168.592 15.9271 168.781 14.7407 169.16 13.5642C169.539 12.3777 170.087 11.3059 170.805 10.3488C171.523 9.38164 172.396 8.60894 173.422 8.03067C174.459 7.45239 175.636 7.16325 176.952 7.16325C177.939 7.16325 178.866 7.40254 179.734 7.88111C180.601 8.34972 181.304 8.97784 181.842 9.76549C182.391 10.5432 182.665 11.3906 182.665 12.3079C182.665 12.9759 182.196 13.4246 181.259 13.6539C180.631 13.8134 179.744 13.8932 178.597 13.8932L177.879 13.8782C176.982 13.8782 176.319 13.958 175.89 14.1175C175.461 14.277 175.247 14.4764 175.247 14.7157C175.247 14.965 175.461 15.1744 175.89 15.3439C176.329 15.5134 176.952 15.6031 177.76 15.6131C178.537 15.6131 179.215 15.4685 179.793 15.1794C180.342 14.8703 180.855 14.7157 181.334 14.7157C181.972 14.7157 182.52 14.9351 182.979 15.3738C183.448 15.8125 183.807 16.3808 184.056 17.0787C184.305 17.7766 184.435 18.5393 184.445 19.3669C184.445 20.314 184.21 21.1565 183.742 21.8943C183.283 22.6222 182.665 23.2353 181.887 23.7339C181.119 24.2324 180.252 24.6112 179.285 24.8705C178.328 25.1297 177.351 25.2593 176.354 25.2593Z" fill="#4A3C39"/>
<path d="M199.265 25.2144C198.109 25.2144 197.112 24.7757 196.274 23.8984C195.437 23.011 195.018 21.9392 195.018 20.6829C195.028 20.0548 195.058 19.3868 195.108 18.6789C195.208 17.1036 195.257 15.5582 195.257 14.0427C195.257 13.3448 195.178 12.7815 195.018 12.3528C194.859 11.9241 194.654 11.61 194.405 11.4106C194.166 11.2112 193.926 11.1115 193.687 11.1115C193.258 11.1115 192.874 11.3607 192.535 11.8593C192.196 12.3578 192.027 13.0108 192.027 13.8184C192.027 14.975 192.177 16.0019 192.476 16.8992C192.775 17.7866 193.114 18.4845 193.493 18.993C194.141 19.9501 194.465 20.8325 194.465 21.6401C194.465 22.348 194.265 22.9711 193.867 23.5095C193.478 24.0479 192.974 24.4667 192.356 24.7658C191.738 25.0649 191.085 25.2144 190.397 25.2144C189.26 25.2144 188.338 25.035 187.63 24.676C186.922 24.3071 186.399 23.8336 186.06 23.2553C185.731 22.667 185.566 22.0489 185.566 21.4008C185.566 21.0818 185.601 20.7677 185.671 20.4586C185.86 19.6211 186.085 18.7487 186.344 17.8414C186.623 16.8344 186.872 15.8374 187.092 14.8503C187.321 13.8533 187.436 12.946 187.436 12.1285C187.436 11.2909 187.271 10.5831 186.942 10.0048C186.693 9.58603 186.568 9.22211 186.568 8.91304C186.568 8.53417 186.708 8.2201 186.987 7.97085C187.266 7.72159 187.625 7.53714 188.064 7.41749C188.503 7.28788 188.966 7.22307 189.455 7.22307C190.143 7.22307 190.781 7.3477 191.369 7.59696C191.967 7.83625 192.346 8.20016 192.506 8.6887C193.084 8.21013 193.712 7.8512 194.39 7.61192C195.068 7.37263 195.751 7.25299 196.439 7.25299C197.366 7.25299 198.229 7.44242 199.026 7.82129C199.834 8.20016 200.482 8.76348 200.97 9.51125C201.469 10.259 201.718 11.1813 201.718 12.278C201.718 14.7407 201.773 16.5353 201.883 17.662C202.002 18.7886 202.276 19.6361 202.705 20.2044C203.144 20.8524 203.363 21.4556 203.363 22.014C203.363 22.6521 203.144 23.2104 202.705 23.689C202.276 24.1676 201.748 24.5414 201.12 24.8106C200.492 25.0798 199.874 25.2144 199.265 25.2144Z" fill="#4A3C39"/>
<path d="M213.294 30.0002C212.197 30.0002 211.12 29.8556 210.063 29.5665C209.016 29.2873 208.064 28.8436 207.207 28.2354C206.359 27.6372 205.681 26.8645 205.173 25.9173C204.664 24.9702 204.41 23.8286 204.41 22.4926C204.41 21.2762 204.649 20.3041 205.128 19.5762C205.607 18.8384 206.245 18.4596 207.042 18.4396C207.531 18.4396 208.189 18.5992 209.016 18.9182C209.325 19.0379 209.744 19.1425 210.273 19.2323C210.801 19.322 211.349 19.3669 211.918 19.3669C212.406 19.3669 212.865 19.322 213.294 19.2323C213.732 19.1326 214.086 18.9631 214.355 18.7238C214.635 18.4845 214.774 18.1605 214.774 17.7517C214.774 17.5124 214.659 17.313 214.43 17.1535C214.211 16.984 213.872 16.8992 213.413 16.8992C212.955 16.9092 212.546 16.9291 212.187 16.959C211.828 16.989 211.449 17.0039 211.05 17.0039C206.773 17.0039 204.634 15.638 204.634 12.9061C204.634 11.8593 204.933 10.9719 205.532 10.2441C206.14 9.50627 206.933 8.91304 207.91 8.46437C208.897 8.01571 209.978 7.68669 211.155 7.47732C212.341 7.26794 213.513 7.16325 214.669 7.16325C215.218 7.16325 215.806 7.17821 216.434 7.20812C218.897 7.33773 220.128 8.01571 220.128 9.24206C220.128 9.58104 220.048 10.1892 219.889 11.0666C219.779 11.7346 219.67 12.4625 219.56 13.2501C219.46 14.0378 219.41 14.7805 219.41 15.4785C219.41 16.645 219.485 17.8165 219.635 18.993C219.764 19.7009 219.999 20.4935 220.338 21.3709C220.537 21.9292 220.716 22.4826 220.876 23.0309C221.045 23.5793 221.13 24.0778 221.13 24.5265C221.13 25.4138 220.911 26.1965 220.472 26.8745C220.043 27.5624 219.455 28.1357 218.707 28.5944C217.97 29.063 217.132 29.4119 216.195 29.6412C215.268 29.8805 214.301 30.0002 213.294 30.0002ZM212.606 15.284C213.393 15.284 214.031 15.2143 214.52 15.0747C215.008 14.9251 215.367 14.7456 215.597 14.5363C215.836 14.3169 215.956 14.1026 215.956 13.8932C215.956 13.7038 215.856 13.5243 215.657 13.3548C215.467 13.1853 215.133 13.0507 214.655 12.951C214.176 12.8413 213.508 12.7865 212.65 12.7865C211.364 12.7865 210.437 12.9061 209.869 13.1454C209.31 13.3747 209.031 13.624 209.031 13.8932C209.031 14.2222 209.36 14.5363 210.018 14.8354C210.686 15.1345 211.549 15.284 212.606 15.284Z" fill="#4A3C39"/>
<path d="M229.52 12.3378C230.098 12.3378 230.562 12.278 230.911 12.1584C231.27 12.0387 231.524 11.8892 231.674 11.7097C231.833 11.5203 231.913 11.3358 231.913 11.1563C231.913 10.8174 231.709 10.5083 231.3 10.2291C230.901 9.93998 230.383 9.79541 229.745 9.79541C229.206 9.79541 228.762 9.95992 228.414 10.2889C228.065 10.608 227.89 10.952 227.89 11.3209C227.89 11.5801 228.01 11.8144 228.249 12.0238C228.498 12.2331 228.922 12.3378 229.52 12.3378ZM229.565 25.2593C228.219 25.2593 227.053 25.035 226.065 24.5863C225.088 24.1377 224.286 23.5344 223.658 22.7767C223.03 22.009 222.561 21.1366 222.252 20.1595C221.953 19.1824 221.803 18.1704 221.803 17.1236C221.803 15.9271 221.993 14.7407 222.372 13.5642C222.75 12.3777 223.299 11.3059 224.017 10.3488C224.734 9.38164 225.607 8.60894 226.634 8.03067C227.671 7.45239 228.847 7.16325 230.163 7.16325C231.15 7.16325 232.078 7.40254 232.945 7.88111C233.812 8.34972 234.515 8.97784 235.054 9.76549C235.602 10.5432 235.876 11.3906 235.876 12.3079C235.876 12.9759 235.408 13.4246 234.47 13.6539C233.842 13.8134 232.955 13.8932 231.808 13.8932L231.091 13.8782C230.193 13.8782 229.53 13.958 229.101 14.1175C228.673 14.277 228.458 14.4764 228.458 14.7157C228.458 14.965 228.673 15.1744 229.101 15.3439C229.54 15.5134 230.163 15.6031 230.971 15.6131C231.749 15.6131 232.427 15.4685 233.005 15.1794C233.553 14.8703 234.067 14.7157 234.545 14.7157C235.183 14.7157 235.732 14.9351 236.19 15.3738C236.659 15.8125 237.018 16.3808 237.267 17.0787C237.516 17.7766 237.646 18.5393 237.656 19.3669C237.656 20.314 237.422 21.1565 236.953 21.8943C236.494 22.6222 235.876 23.2353 235.099 23.7339C234.331 24.2324 233.463 24.6112 232.496 24.8705C231.539 25.1297 230.562 25.2593 229.565 25.2593Z" fill="#4A3C39"/>
<path d="M0.756397 16.8261C-0.252132 15.8176 -0.252132 14.1824 0.756396 13.1739L13.1739 0.756397C14.1824 -0.252132 15.8176 -0.252132 16.8261 0.756396L29.2436 13.1739C30.2521 14.1824 30.2521 15.8176 29.2436 16.8261L16.8261 29.2436C15.8176 30.2521 14.1824 30.2521 13.1739 29.2436L0.756397 16.8261Z" fill="#F15F3B"/>
<path d="M9.26029 4.56692L10.7663 3.06231L14.3563 6.65574C14.5419 6.60101 14.7385 6.57163 14.9418 6.57163C16.0828 6.57163 17.0078 7.49663 17.0078 8.63763C17.0078 8.84166 16.9782 9.03875 16.9231 9.22494L20.5498 12.8551C20.7368 12.7995 20.9348 12.7696 21.1398 12.7696C22.2808 12.7696 23.2058 13.6946 23.2058 14.8356C23.2058 15.9766 22.2808 16.9016 21.1398 16.9016C19.9988 16.9016 19.0738 15.9766 19.0738 14.8356C19.0738 14.6967 19.0875 14.5609 19.1137 14.4296L15.9748 11.2877V19.244C16.5923 19.6013 17.0078 20.2689 17.0078 21.0336C17.0078 22.1746 16.0828 23.0996 14.9418 23.0996C13.8008 23.0996 12.8758 22.1746 12.8758 21.0336C12.8758 20.2689 13.2913 19.6013 13.9088 19.244V10.4272C13.2913 10.07 12.8758 9.40236 12.8758 8.63763C12.8758 8.49691 12.8899 8.35946 12.9166 8.22668L9.26029 4.56692Z" fill="white"/>
</svg>
