<?xml version="1.0" standalone="no"?>
<!DOCTYPE svg PUBLIC "-//W3C//DTD SVG 20010904//EN"
 "http://www.w3.org/TR/2001/REC-SVG-20010904/DTD/svg10.dtd">
<svg version="1.0" xmlns="http://www.w3.org/2000/svg"
 width="700.000000pt" height="700.000000pt" viewBox="0 0 700.000000 700.000000"
 preserveAspectRatio="xMidYMid meet">
<metadata>
Created by potrace 1.14, written by Peter Selinger 2001-2017
</metadata>
<g transform="translate(0.000000,700.000000) scale(0.100000,-0.100000)"
fill="#000000" stroke="none">
<path d="M3354 6980 c-90 -23 -165 -61 -229 -114 -27 -22 -174 -166 -326 -318
-152 -152 -279 -274 -283 -271 -9 9 -356 -338 -350 -349 3 -4 -455 -469 -1018
-1031 -1091 -1092 -1073 -1072 -1119 -1217 -26 -81 -32 -221 -13 -310 7 -36
32 -102 55 -148 42 -83 46 -88 1549 -1590 1617 -1617 1553 -1557 1705 -1604
99 -31 253 -31 350 -1 152 48 88 -12 1699 1599 1611 1611 1551 1547 1599 1699
30 97 30 251 -1 350 -47 152 14 87 -1598 1699 -1605 1605 -1547 1551 -1694
1597 -93 29 -234 33 -326 9z"/>
</g>
</svg>
